<svg xmlns="http://www.w3.org/2000/svg" viewBox="0 0 400 200">
  <circle cx="80" cy="120" r="50" fill="rgba(255,255,255,0.2)"/>
  <circle cx="200" cy="100" r="45" fill="rgba(255,255,255,0.25)"/>
  <circle cx="320" cy="130" r="40" fill="rgba(255,255,255,0.2)"/>
  <path d="M80 70 Q90 40 100 70" stroke="rgba(255,255,255,0.4)" stroke-width="3" fill="none"/>
  <path d="M190 55 Q200 30 210 55" stroke="rgba(255,255,255,0.4)" stroke-width="3" fill="none"/>
  <path d="M310 90 Q320 65 330 90" stroke="rgba(255,255,255,0.4)" stroke-width="3" fill="none"/>
  <circle cx="70" cy="110" r="5" fill="rgba(255,255,255,0.8)"/>
  <circle cx="90" cy="110" r="5" fill="rgba(255,255,255,0.8)"/>
  <circle cx="188" cy="90" r="4" fill="rgba(255,255,255,0.8)"/>
  <circle cx="212" cy="90" r="4" fill="rgba(255,255,255,0.8)"/>
  <circle cx="310" cy="120" r="4" fill="rgba(255,255,255,0.8)"/>
  <circle cx="330" cy="120" r="4" fill="rgba(255,255,255,0.8)"/>
  <ellipse cx="80" cy="135" rx="8" ry="5" fill="rgba(255,255,255,0.3)"/>
  <ellipse cx="200" cy="115" rx="7" ry="4" fill="rgba(255,255,255,0.3)"/>
  <ellipse cx="320" cy="145" rx="6" ry="4" fill="rgba(255,255,255,0.3)"/>
  <path d="M60 160 Q200 140 340 160" stroke="rgba(255,255,255,0.15)" stroke-width="2" fill="none"/>
</svg>
